<svg width="22" height="37" viewBox="0 0 22 37" fill="none" xmlns="http://www.w3.org/2000/svg">
<symbol id="logo">
<path d="M5.9404 8.59227C8.89877 11.5807 12.3827 15.0045 13.957 18.7121C15.624 22.6398 14.1582 27.1195 12.3852 29.9792C10.6121 32.839 9.4524 35.1732 10.0329 35.6435C10.6133 36.1137 14.6241 33.2443 15.5435 28.3593C16.5423 23.0523 16.0264 18.9839 11.9986 14.1218C7.52202 8.71734 3.04056 5.25507 1.26748 4.04767C-0.505593 2.84026 -0.794603 -0.655685 2.87837 0.107963C6.55256 0.870408 17.7337 5.95498 20.4725 11.5483C23.2114 17.1415 17.8946 28.773 16.3154 31.4741C18.636 25.8495 22.0834 16.8553 19.5701 11.9295C17.0569 7.00364 7.32569 2.71278 4.97338 1.98281C2.62107 1.25283 0.558985 0.965413 1.65405 2.3965C2.74911 3.82759 5.77821 5.44749 9.77434 9.61087C13.7705 13.7743 16.0898 17.079 16.9922 21.1149C17.8946 25.1508 16.8959 29.9179 15.1228 32.8727C13.3497 35.8274 10.7731 37.7035 9.12925 36.7498C7.48544 35.7962 10.6218 31.1193 12.062 28.3918C13.6071 25.4671 15.0594 21.1774 12.3522 16.9828C9.64507 12.7881 7.93785 10.7858 5.93918 8.59348L5.9404 8.59227Z" fill="url(#paint0_linear_356_123)"/>
<defs>
<linearGradient id="paint0_linear_356_123" x1="4.3539" y1="-1.00684" x2="18.7185" y2="34.8664" gradientUnits="userSpaceOnUse">
<stop offset="0.21" stop-color="#29C5F6"/>
<stop offset="0.51" stop-color="#1B88DD"/>
<stop offset="0.87" stop-color="#29C5F6"/>
</linearGradient>
</defs>
</symbol>
</svg>