<svg aria-hidden="true" style="position: absolute; width: 0; height: 0; overflow: hidden;" version="1.1" xmlns="http://www.w3.org/2000/svg" xmlns:xlink="http://www.w3.org/1999/xlink">
<symbol id="twitter">
<rect x="0.00561523" y="0.581543" width="38.8324" height="38.837" rx="3.86756" fill="black" fill-opacity="0.25"/>
<path d="M29.0504 14.1204C28.3645 14.4265 27.6242 14.6342 26.8513 14.7217C27.6351 14.2516 28.2448 13.4972 28.5278 12.6007C27.7875 13.038 26.971 13.3551 26.1001 13.53C25.4034 12.7865 24.4127 12.3164 23.3132 12.3164C21.2012 12.3164 19.4921 14.0329 19.4921 16.154C19.4921 16.4601 19.5247 16.7443 19.59 17.0286C16.4112 16.8646 13.6025 15.3449 11.7082 13.0161C11.3816 13.5847 11.1857 14.2406 11.1857 14.9404C11.1857 16.2742 11.8607 17.4441 12.884 18.1329C12.2526 18.111 11.6647 17.9361 11.153 17.6518V17.6955C11.153 19.5542 12.4703 21.1067 14.223 21.4565C13.9073 21.544 13.5698 21.5877 13.2215 21.5877C12.9711 21.5877 12.7316 21.5659 12.503 21.5221C12.9928 23.0419 14.3972 24.157 16.0737 24.1898C14.7673 25.2176 13.1126 25.8298 11.3272 25.8298C11.0224 25.8298 10.7176 25.808 10.4128 25.7752C12.1002 26.8685 14.1141 27.5026 16.2697 27.5026C23.3023 27.5026 27.1452 21.6533 27.1452 16.5803C27.1452 16.4164 27.1452 16.2524 27.1343 16.0884C27.8855 15.5526 28.5278 14.8748 29.0395 14.0985" fill="#29C5F6"/>
</symbol>
<symbol id="instagram">
<rect x="0.838013" y="0.581543" width="38.8324" height="38.837" rx="3.86756" fill="black" fill-opacity="0.25"/>
<path d="M15.1144 12.0616C14.5699 12.2721 14.1053 12.5552 13.6479 13.0198C13.1905 13.4772 12.9074 13.9418 12.6896 14.4863C12.4863 15.009 12.3484 15.6116 12.3048 16.4973C12.2613 17.383 12.254 17.6588 12.254 19.9094C12.254 22.1599 12.2613 22.4357 12.3048 23.3214C12.3484 24.1999 12.4863 24.8024 12.6896 25.3324C12.9001 25.8769 13.1833 26.3415 13.6479 26.7989C14.1053 27.2562 14.5699 27.5394 15.1144 27.7571C15.6371 27.9604 16.2396 28.0984 17.1253 28.1419C18.0038 28.1855 18.2869 28.1927 20.5374 28.1927C22.7879 28.1927 23.0638 28.1855 23.9495 28.1419C24.8279 28.0984 25.4305 27.9604 25.9604 27.7571C26.5049 27.5466 26.9695 27.2635 27.4269 26.7989C27.8843 26.3415 28.1674 25.8769 28.3852 25.3324C28.5885 24.8097 28.7264 24.2071 28.77 23.3214C28.8135 22.443 28.8208 22.1599 28.8208 19.9094C28.8208 17.6588 28.8135 17.383 28.77 16.4973C28.7264 15.6116 28.5885 15.0163 28.3852 14.4863C28.1747 13.9418 27.8915 13.4772 27.4342 13.0198C26.9768 12.5625 26.5122 12.2794 25.9677 12.0616C25.445 11.8583 24.8424 11.7204 23.9567 11.6768C23.0711 11.6332 22.7952 11.626 20.5447 11.626C18.2941 11.626 18.0183 11.6332 17.1326 11.6768C16.2469 11.7131 15.6443 11.8583 15.1216 12.0616H15.1144ZM23.8769 13.165C24.6827 13.2013 25.1183 13.3393 25.416 13.4482C25.8007 13.6006 26.0766 13.7749 26.367 14.0653C26.6574 14.3556 26.8316 14.6315 26.9841 15.0163C27.1002 15.3067 27.2309 15.7495 27.2672 16.5553C27.3108 17.4265 27.3108 17.6879 27.3108 19.9021C27.3108 22.1163 27.3035 22.3777 27.2672 23.2488C27.2309 24.0547 27.093 24.4903 26.9841 24.7879C26.8316 25.1727 26.6574 25.4485 26.367 25.7389C26.0766 26.0293 25.8007 26.2036 25.416 26.356C25.1256 26.4722 24.6827 26.6028 23.8769 26.6391C23.0057 26.6827 22.7444 26.6827 20.5301 26.6827C18.3159 26.6827 18.0546 26.6754 17.1834 26.6391C16.3776 26.6028 15.942 26.4649 15.6443 26.356C15.2596 26.2036 14.9837 26.0293 14.6933 25.7389C14.4029 25.4485 14.2287 25.1727 14.0762 24.7879C13.9601 24.4975 13.8294 24.0547 13.7931 23.2488C13.7495 22.3777 13.7495 22.1163 13.7495 19.9021C13.7495 17.6879 13.7568 17.4265 13.7931 16.5553C13.8294 15.7495 13.9673 15.3139 14.0762 15.0163C14.2287 14.6315 14.4029 14.3556 14.6933 14.0653C14.9837 13.7749 15.2596 13.6006 15.6443 13.4482C15.9347 13.332 16.3776 13.2013 17.1834 13.165C18.0546 13.1215 18.3159 13.1215 20.5301 13.1215C22.7444 13.1215 23.0057 13.1215 23.8769 13.165Z" fill="#29C5F6"/>
<path d="M16.2904 19.9022C16.2904 22.2471 18.1924 24.1492 20.5373 24.1492C22.8822 24.1492 24.7843 22.2471 24.7843 19.9022C24.7843 17.5573 22.8822 15.6553 20.5373 15.6553C18.1924 15.6553 16.2904 17.5573 16.2904 19.9022ZM23.2961 19.9022C23.2961 21.4268 22.0619 22.6609 20.5373 22.6609C19.0128 22.6609 17.7786 21.4268 17.7786 19.9022C17.7786 18.3777 19.0128 17.1435 20.5373 17.1435C22.0619 17.1435 23.2961 18.3777 23.2961 19.9022Z" fill="#29C5F6"/>
<path d="M24.9586 16.4828C25.5079 16.4828 25.9532 16.0375 25.9532 15.4882C25.9532 14.9389 25.5079 14.4937 24.9586 14.4937C24.4093 14.4937 23.964 14.9389 23.964 15.4882C23.964 16.0375 24.4093 16.4828 24.9586 16.4828Z" fill="#29C5F6"/>
</symbol>
<symbol id="facebook">
<rect x="0.670418" y="0.581543" width="38.8324" height="38.837" rx="3.86756" fill="black" fill-opacity="0.25"/>
<path d="M17.9439 13.7903C17.9439 14.2509 17.9439 16.3068 17.9439 16.3068H16.1401V19.384H17.9439V28.5283H21.6492V19.3843H24.1357C24.1357 19.3843 24.3686 17.9088 24.4814 16.2955C24.1578 16.2955 21.6632 16.2955 21.6632 16.2955C21.6632 16.2955 21.6632 14.5053 21.6632 14.1915C21.6632 13.877 22.0672 13.454 22.4665 13.454C22.8651 13.454 23.7062 13.454 24.4853 13.454C24.4853 13.0351 24.4853 11.5874 24.4853 10.2505C23.4453 10.2505 22.262 10.2505 21.7405 10.2505C17.8523 10.2503 17.9439 13.3305 17.9439 13.7903Z" fill="#29C5F6"/>
</symbol>
<symbol id="discord">
<rect x="0.502823" y="0.581543" width="38.8324" height="38.837" rx="3.86756" fill="black" fill-opacity="0.25"/>
<path d="M25.9089 13.8929C24.7955 13.3931 23.5997 13.0249 22.3489 12.8276C22.1977 13.0907 22.019 13.4457 21.8953 13.7351C20.562 13.5378 19.2562 13.5378 17.9504 13.7351C17.8267 13.4457 17.648 13.0907 17.4831 12.8276C16.2323 13.0381 15.0364 13.3931 13.9231 13.906C11.6689 17.1544 11.0503 20.337 11.3527 23.467C12.8509 24.5322 14.2942 25.1898 15.7237 25.6106C16.0811 25.1503 16.3835 24.6506 16.6584 24.1377C16.1498 23.9536 15.655 23.7169 15.1876 23.4538C15.3113 23.3618 15.435 23.2697 15.545 23.1776C18.3902 24.4533 21.4692 24.4533 24.2732 23.1776C24.3969 23.2697 24.5068 23.3618 24.6306 23.4538C24.1632 23.7169 23.6684 23.9536 23.1598 24.1377C23.4347 24.6506 23.7371 25.1503 24.0945 25.6106C25.524 25.1898 26.9672 24.5322 28.4655 23.467C28.8228 19.8372 27.8469 16.6809 25.8951 13.8929H25.9089ZM17.0432 21.5469C16.191 21.5469 15.49 20.7841 15.49 19.8635C15.49 18.943 16.1773 18.167 17.0432 18.167C17.9092 18.167 18.6102 18.9298 18.5964 19.8635C18.5964 20.7973 17.9092 21.5469 17.0432 21.5469ZM22.775 21.5469C21.9228 21.5469 21.2217 20.7841 21.2217 19.8635C21.2217 18.943 21.909 18.167 22.775 18.167C23.6409 18.167 24.3419 18.9298 24.3282 19.8635C24.3282 20.7973 23.6409 21.5469 22.775 21.5469Z" fill="#29C5F6"/>
</symbol>
<symbol id="telegram">
<rect x="0.33522" y="0.581543" width="38.8324" height="38.837" rx="3.86756" fill="black" fill-opacity="0.25"/>
<path d="M14.4207 21.7056L16.7056 27.5203L19.6802 24.4921L24.7803 28.6188L28.3713 12.1816L10.0004 19.9716L14.4207 21.7056ZM23.1218 16.8976L17.4988 22.1188L16.7984 24.806L15.5046 21.5126L23.1218 16.8976Z" fill="#29C5F6"/>
</symbol>
<symbol id="M">
<rect x="0.167618" y="0.581543" width="38.8324" height="38.837" rx="3.86756" fill="black" fill-opacity="0.25"/>
<path d="M27.4831 14.3442L28.9996 12.8982V12.5815H23.7474L20.0043 21.8712L15.7466 12.5815H10.2396V12.8982L12.011 15.0243C12.1841 15.1814 12.2732 15.4121 12.2509 15.6429V23.9973C12.3054 24.2992 12.2089 24.6061 11.9961 24.8246L9.99963 27.2378V27.5496H15.6551V27.2329L13.6611 24.827C13.5543 24.7194 13.4739 24.5888 13.4263 24.4453C13.3786 24.3018 13.365 24.1493 13.3865 23.9997V16.7722L18.3517 27.5545H18.9281L23.1982 16.7722V25.3622C23.1982 25.5881 23.1982 25.6347 23.0498 25.7845L21.5134 27.2648V27.5815H28.965V27.2648L27.4831 25.8189C27.3545 25.7207 27.2877 25.5562 27.3149 25.3966V14.7665C27.3021 14.6876 27.3109 14.6067 27.3405 14.5324C27.3701 14.4581 27.4194 14.3931 27.4831 14.3442Z" fill="#29C5F6"/>
</symbol>
<symbol id="bigTwitter">
<path d="M33.0579 2.5C30.5417 1.32716 27.8392 0.462963 25.0124 0C24.6707 0.617284 24.2669 1.45062 23.9874 2.12963C20.9742 1.66667 18.0232 1.66667 15.0722 2.12963C14.7926 1.45062 14.3888 0.617284 14.016 0C11.1892 0.493827 8.48674 1.32716 5.97061 2.53086C0.876215 10.1543 -0.521636 17.6235 0.161757 24.9691C3.54766 27.4691 6.80932 29.0123 10.0399 30C10.8476 28.9198 11.5309 27.7469 12.1522 26.5432C11.0029 26.1111 9.88459 25.5556 8.82843 24.9383C9.108 24.7222 9.38757 24.5062 9.63608 24.2901C16.0662 27.2839 23.0244 27.2839 29.3613 24.2901C29.6409 24.5062 29.8894 24.7222 30.169 24.9383C29.1128 25.5556 27.9945 26.1111 26.8452 26.5432C27.4664 27.7469 28.1498 28.9198 28.9575 30C32.1881 29.0123 35.4497 27.4691 38.8356 24.9691C39.6433 16.4506 37.4378 9.04321 33.0268 2.5H33.0579ZM13.022 20.463C11.0961 20.463 9.51183 18.6728 9.51183 16.5123C9.51183 14.3519 11.065 12.5309 13.022 12.5309C14.979 12.5309 16.5632 14.321 16.5321 16.5123C16.5321 18.7037 14.979 20.463 13.022 20.463ZM25.9754 20.463C24.0495 20.463 22.4652 18.6728 22.4652 16.5123C22.4652 14.3519 24.0184 12.5309 25.9754 12.5309C27.9324 12.5309 29.5166 14.321 29.4856 16.5123C29.4856 18.7037 27.9324 20.463 25.9754 20.463Z" fill="white"/>
</symbol>
<symbol id="checkMark">
<path d="M3 14.9939L8.91176 19.4939L19 5.4939" stroke="#67FF1F" stroke-width="4" stroke-linecap="round"/>
</symbol>
<symbol id="cross">
<path d="M15.2635 5.41421C16.0445 4.63317 17.3108 4.63317 18.0919 5.41421C18.8729 6.19526 18.8729 7.46159 18.0919 8.24264L7.24264 19.0919C6.46159 19.8729 5.19526 19.8729 4.41421 19.0919C3.63316 18.3108 3.63316 17.0445 4.41421 16.2635L15.2635 5.41421Z" fill="#FF4FD8"/>
<path d="M18.0921 16.2635C18.8731 17.0445 18.8731 18.3108 18.0921 19.0919C17.311 19.8729 16.0447 19.8729 15.2636 19.0919L4.4144 8.24264C3.63335 7.4616 3.63335 6.19527 4.4144 5.41422C5.19545 4.63317 6.46178 4.63317 7.24283 5.41422L18.0921 16.2635Z" fill="#FF4FD8"/>
</symbol>
<symbol id="footer-twitter">
<rect width="65.6095" height="65.6173" rx="6.53446" fill="black" fill-opacity="0.25"/>
<path d="M49.073 22.8746C47.9142 23.3918 46.6635 23.7428 45.3575 23.8905C46.6819 23.0962 47.7119 21.8217 48.1901 20.3069C46.9394 21.0458 45.5599 21.5815 44.0884 21.8771C42.9112 20.621 41.2374 19.8267 39.3797 19.8267C35.8114 19.8267 32.9237 22.7268 32.9237 26.3104C32.9237 26.8276 32.9789 27.3079 33.0892 27.7882C27.7184 27.5111 22.973 24.9435 19.7725 21.0089C19.2207 21.9694 18.8897 23.0778 18.8897 24.26C18.8897 26.5136 20.03 28.4901 21.759 29.6539C20.6922 29.6169 19.699 29.3214 18.8345 28.8411V28.915C18.8345 32.0553 21.0601 34.6783 24.0214 35.2694C23.488 35.4172 22.9178 35.4911 22.3292 35.4911C21.9062 35.4911 21.5015 35.4541 21.1152 35.3803C21.9429 37.9479 24.3157 39.8321 27.1482 39.8875C24.941 41.6239 22.1453 42.6583 19.1288 42.6583C18.6138 42.6583 18.0988 42.6214 17.5837 42.5659C20.4347 44.4132 23.8374 45.4846 27.4793 45.4846C39.3613 45.4846 45.8542 35.6019 45.8542 27.0308C45.8542 26.7537 45.8542 26.4767 45.8358 26.1996C47.1049 25.2944 48.1901 24.1492 49.0546 22.8376" fill="#29C5F6"/>
</symbol>
<symbol id="footer-instagram">
<rect x="0.678101" width="65.6095" height="65.6173" rx="6.53446" fill="black" fill-opacity="0.25"/>
<path d="M24.7985 19.3961C23.8785 19.7518 23.0935 20.2302 22.3208 21.0152C21.548 21.7879 21.0697 22.5729 20.7017 23.4929C20.3583 24.376 20.1252 25.3941 20.0516 26.8905C19.978 28.3869 19.9658 28.853 19.9658 32.6554C19.9658 36.4578 19.978 36.9239 20.0516 38.4203C20.1252 39.9044 20.3583 40.9225 20.7017 41.8179C21.0574 42.7378 21.5358 43.5228 22.3208 44.2956C23.0935 45.0683 23.8785 45.5467 24.7985 45.9146C25.6816 46.2581 26.6997 46.4911 28.1961 46.5647C29.6802 46.6383 30.1586 46.6506 33.961 46.6506C37.7634 46.6506 38.2295 46.6383 39.7259 46.5647C41.21 46.4911 42.2281 46.2581 43.1235 45.9146C44.0434 45.5589 44.8284 45.0806 45.6012 44.2956C46.3739 43.5228 46.8523 42.7378 47.2202 41.8179C47.5637 40.9348 47.7967 39.9167 47.8703 38.4203C47.9439 36.9361 47.9562 36.4578 47.9562 32.6554C47.9562 28.853 47.9439 28.3869 47.8703 26.8905C47.7967 25.3941 47.5637 24.3883 47.2202 23.4929C46.8645 22.5729 46.3862 21.7879 45.6134 21.0152C44.8407 20.2424 44.0557 19.7641 43.1358 19.3961C42.2526 19.0527 41.2346 18.8196 39.7381 18.746C38.2417 18.6724 37.7756 18.6602 33.9732 18.6602C30.1709 18.6602 29.7048 18.6724 28.2083 18.746C26.7119 18.8073 25.6939 19.0527 24.8107 19.3961H24.7985ZM39.6032 21.2605C40.9647 21.3218 41.7007 21.5549 42.2036 21.7389C42.8536 21.9964 43.3197 22.2908 43.8104 22.7814C44.301 23.2721 44.5954 23.7382 44.853 24.3883C45.0492 24.8789 45.27 25.6271 45.3313 26.9886C45.4049 28.4605 45.4049 28.9021 45.4049 32.6431C45.4049 36.3842 45.3927 36.8257 45.3313 38.2976C45.27 39.6591 45.0369 40.3951 44.853 40.898C44.5954 41.548 44.301 42.0141 43.8104 42.5048C43.3197 42.9954 42.8536 43.2898 42.2036 43.5474C41.7129 43.7436 40.9647 43.9644 39.6032 44.0257C38.1313 44.0993 37.6898 44.0993 33.9487 44.0993C30.2077 44.0993 29.7661 44.087 28.2942 44.0257C26.9327 43.9644 26.1968 43.7313 25.6939 43.5474C25.0438 43.2898 24.5777 42.9954 24.087 42.5048C23.5964 42.0141 23.302 41.548 23.0445 40.898C22.8482 40.4073 22.6274 39.6591 22.5661 38.2976C22.4925 36.8257 22.4925 36.3842 22.4925 32.6431C22.4925 28.9021 22.5048 28.4605 22.5661 26.9886C22.6274 25.6271 22.8605 24.8912 23.0445 24.3883C23.302 23.7382 23.5964 23.2721 24.087 22.7814C24.5777 22.2908 25.0438 21.9964 25.6939 21.7389C26.1845 21.5426 26.9327 21.3218 28.2942 21.2605C29.7661 21.1869 30.2077 21.1869 33.9487 21.1869C37.6898 21.1869 38.1313 21.1869 39.6032 21.2605Z" fill="#29C5F6"/>
<path d="M26.7857 32.6432C26.7857 36.6051 29.9993 39.8187 33.9612 39.8187C37.923 39.8187 41.1366 36.6051 41.1366 32.6432C41.1366 28.6814 37.923 25.4678 33.9612 25.4678C29.9993 25.4678 26.7857 28.6814 26.7857 32.6432ZM38.6221 32.6432C38.6221 35.219 36.537 37.3042 33.9612 37.3042C31.3854 37.3042 29.3002 35.219 29.3002 32.6432C29.3002 30.0674 31.3854 27.9823 33.9612 27.9823C36.537 27.9823 38.6221 30.0674 38.6221 32.6432Z" fill="#29C5F6"/>
<path d="M41.431 26.8662C42.359 26.8662 43.1114 26.1138 43.1114 25.1858C43.1114 24.2577 42.359 23.5054 41.431 23.5054C40.5029 23.5054 39.7505 24.2577 39.7505 25.1858C39.7505 26.1138 40.5029 26.8662 41.431 26.8662Z" fill="#29C5F6"/>
</symbol>
<symbol id="footer-facebook">
<rect x="0.356232" width="65.6095" height="65.6173" rx="6.53446" fill="black" fill-opacity="0.25"/>
<path d="M29.5413 22.3169C29.5413 23.0952 29.5413 26.5687 29.5413 26.5687H26.4937V31.7678H29.5413V47.2176H35.8016V31.7682H40.0026C40.0026 31.7682 40.396 29.2753 40.5868 26.5495C40.04 26.5495 35.8253 26.5495 35.8253 26.5495C35.8253 26.5495 35.8253 23.5249 35.8253 22.9947C35.8253 22.4634 36.5078 21.7487 37.1825 21.7487C37.8558 21.7487 39.277 21.7487 40.5934 21.7487C40.5934 21.0409 40.5934 18.595 40.5934 16.3362C38.8361 16.3362 36.8369 16.3362 35.9557 16.3362C29.3865 16.3358 29.5413 21.5401 29.5413 22.3169Z" fill="#29C5F6"/>
</symbol>
<symbol id="footer-discord">
<rect x="0.0343628" width="65.6095" height="65.6173" rx="6.53446" fill="black" fill-opacity="0.25"/>
<path d="M42.9599 22.4902C41.0788 21.6459 39.0584 21.0237 36.9451 20.6904C36.6896 21.1348 36.3877 21.7348 36.1787 22.2236C33.9261 21.8903 31.7199 21.8903 29.5137 22.2236C29.3047 21.7348 29.0028 21.1348 28.7241 20.6904C26.6108 21.0459 24.5904 21.6459 22.7093 22.5124C18.9007 28.0007 17.8556 33.3779 18.3665 38.6662C20.8979 40.466 23.3363 41.577 25.7515 42.288C26.3553 41.5103 26.8662 40.6659 27.3307 39.7994C26.4714 39.4883 25.6354 39.0883 24.8458 38.6439C25.0548 38.4884 25.2638 38.3329 25.4496 38.1773C30.2568 40.3326 35.4588 40.3326 40.1963 38.1773C40.4054 38.3329 40.5911 38.4884 40.8002 38.6439C40.0106 39.0883 39.1745 39.4883 38.3153 39.7994C38.7797 40.6659 39.2906 41.5103 39.8944 42.288C42.3097 41.577 44.7481 40.466 47.2794 38.6662C47.8832 32.5335 46.2344 27.2008 42.9367 22.4902H42.9599ZM27.9809 35.4221C26.5411 35.4221 25.3567 34.1333 25.3567 32.578C25.3567 31.0226 26.5179 29.7116 27.9809 29.7116C29.444 29.7116 30.6284 31.0004 30.6052 32.578C30.6052 34.1556 29.444 35.4221 27.9809 35.4221ZM37.665 35.4221C36.2252 35.4221 35.0408 34.1333 35.0408 32.578C35.0408 31.0226 36.202 29.7116 37.665 29.7116C39.1281 29.7116 40.3125 31.0004 40.2892 32.578C40.2892 34.1556 39.1281 35.4221 37.665 35.4221Z" fill="#29C5F6"/>
</symbol>
<symbol id="footer-telegram">
<rect x="0.712463" width="65.6095" height="65.6173" rx="6.53446" fill="black" fill-opacity="0.25"/>
<path d="M24.5111 35.6902L28.3715 45.5143L33.3972 40.3981L42.0141 47.3703L48.0813 19.5989L17.0427 32.7604L24.5111 35.6902ZM39.212 27.5668L29.7116 36.3883L28.5282 40.9284L26.3423 35.364L39.212 27.5668Z" fill="#29C5F6"/>
</symbol>
<symbol id="footer-M">
<rect x="0.390564" width="65.6095" height="65.6173" rx="6.53446" fill="black" fill-opacity="0.25"/>
<path d="M46.5418 23.2528L49.1041 20.8097V20.2747H40.2302L33.906 35.9701L26.7124 20.2747H17.408V20.8097L20.4008 24.4018C20.6934 24.6672 20.8439 25.0571 20.8063 25.447V39.5621C20.8982 40.0723 20.7352 40.5908 20.3757 40.9599L17.0026 45.0373V45.5641H26.5578V45.029L23.1888 40.9641C23.0083 40.7822 22.8725 40.5615 22.792 40.319C22.7116 40.0766 22.6886 39.819 22.7248 39.5663V27.355L31.1139 45.5723H32.0878L39.3023 27.355V41.8683C39.3023 42.2499 39.3023 42.3287 39.0515 42.5818L36.4558 45.0829V45.618H49.0456V45.0829L46.5418 42.6398C46.3245 42.4739 46.2116 42.196 46.2576 41.9264V23.9662C46.2359 23.8329 46.2509 23.6963 46.3009 23.5708C46.351 23.4452 46.4342 23.3354 46.5418 23.2528Z" fill="#29C5F6"/>
</symbol>
<symbol id="burger">
<rect x="11" y="10.7568" width="22" height="3" fill="white"/>
<rect x="11" y="17.7568" width="22" height="3" fill="white"/>
<rect x="11" y="24.7568" width="22" height="3" fill="white"/>
</symbol>
</svg>






